<svg width="516" height="516" viewBox="0 0 516 516" fill="none" xmlns="http://www.w3.org/2000/svg">
    <path d="M202.062 -96.998L227.718 -41.834L456.072 -26.4395L601.038 226.288L696 213.021L543.309 408.456L554.856 535.462L497.125 579.079L489.43 649.64L399.628 750.987L301.684 767.003L229.005 554.705L259.792 476.449L198.216 364.839L217.459 295.563L127.655 277.604L9.62891 301.978L-93 189.086V92.8662L41.7021 -80.3203L202.061 -97L202.062 -96.998ZM658.462 560.628L618.547 655.88L586.795 647.713C589.186 595.604 590.556 570.583 612.199 526.158L636.689 525.251L662.995 487.149L658.462 560.628ZM333.799 415.93L347.877 435.008L394.254 372.16L407.091 389.556L314.751 514.689L301.5 604.472L367.753 586.516L474.172 442.303L394.254 334.003L333.799 415.93ZM430.693 357.571L483.696 429.396L513.51 388.995L460.508 317.169L430.693 357.571ZM282.033 23.1016V186.141L171.718 209.128L61.4033 186.141V26.5068C61.4033 25.3718 61.5392 24.2366 61.8096 23.1016H61.4033L41.9365 18.8438V202.743L171.718 229.987L301.5 202.743V18.8438L282.033 23.1016ZM249.587 15.0127L171.718 26.9326L93.8496 15.0127L74.3818 12.0332V172.093L166.446 192.526C169.961 193.378 173.476 193.378 176.99 192.526L269.055 172.093V12.0332L249.587 15.0127ZM161.984 46.0889V170.816L93.8496 155.491V35.8721L161.984 46.0889ZM249.587 155.491L181.452 170.816V46.0889L249.587 35.8721V155.491Z" fill="#EDDEDE" fill-opacity="0.10"/>
</svg>
