<svg width="399" height="437" viewBox="0 0 399 437" fill="none" xmlns="http://www.w3.org/2000/svg">
  <path d="M148.916 0.000976562L161.864 27.8418L277.113 35.6113L350.276 163.161L398.203 156.466L321.141 255.101L326.969 319.199L297.832 341.213L293.948 376.824L248.626 427.974L199.194 436.057L162.514 328.911L178.052 289.416L146.975 233.087L156.687 198.124L111.363 189.061L51.7959 201.361L0 144.386V95.8242L67.9834 8.41797L148.915 0L148.916 0.000976562ZM379.258 331.9L359.113 379.974L343.088 375.852C344.295 349.552 344.986 336.925 355.909 314.504L368.27 314.046L381.546 294.816L379.258 331.9ZM215.402 258.872L222.508 268.501L245.914 236.782L252.393 245.562L205.789 308.716L199.102 354.028L232.539 344.966L286.248 272.183L245.914 217.524L215.402 258.872ZM264.305 229.419L291.055 265.669L306.102 245.278L279.352 209.028L264.305 229.419ZM189.276 60.6143V142.899L133.602 154.501L77.9268 142.899V62.333C77.9268 61.7601 77.9944 61.1871 78.1309 60.6143H77.9268L68.1016 58.4658V151.278L133.602 165.028L199.102 151.278V58.4658L189.276 60.6143ZM172.901 56.5322L133.602 62.5479L94.3018 56.5322L84.4766 55.0283V135.81L130.94 146.122C132.714 146.552 134.489 146.552 136.263 146.122L182.727 135.81V55.0283L172.901 56.5322ZM128.689 72.2158V135.165L94.3018 127.431V67.0596L128.689 72.2158ZM172.901 127.431L138.514 135.165V72.2158L172.901 67.0596V127.431Z" fill="var(--color-primary,#6C0B0B)"/>
</svg>
